<mxfile host="app.diagrams.net" modified="2024-01-19T17:52:59.658Z" agent="Mozilla/5.0 (Windows NT 10.0; Win64; x64) AppleWebKit/537.36 (KHTML, like Gecko) Chrome/120.0.0.0 Safari/537.36" etag="BgarBxhfxG0cohHom-Yv" version="22.1.21" type="github">
  <diagram name="PÃ¡gina-1" id="_P0-jLwjL5VsI47phMsy">
    <mxGraphModel dx="989" dy="909" grid="0" gridSize="10" guides="1" tooltips="1" connect="1" arrows="1" fold="1" page="0" pageScale="1" pageWidth="827" pageHeight="1169" math="0" shadow="0">
      <root>
        <mxCell id="0" />
        <mxCell id="1" parent="0" />
        <mxCell id="55w-Nb8C0aCBHZfSoHmd-3" value="" style="edgeStyle=orthogonalEdgeStyle;rounded=0;orthogonalLoop=1;jettySize=auto;html=1;" edge="1" parent="1" source="55w-Nb8C0aCBHZfSoHmd-1" target="55w-Nb8C0aCBHZfSoHmd-2">
          <mxGeometry relative="1" as="geometry" />
        </mxCell>
        <mxCell id="55w-Nb8C0aCBHZfSoHmd-1" value="Obtener&lt;br&gt;Base Rate" style="ellipse;whiteSpace=wrap;html=1;aspect=fixed;" vertex="1" parent="1">
          <mxGeometry x="109" y="126" width="80" height="80" as="geometry" />
        </mxCell>
        <mxCell id="55w-Nb8C0aCBHZfSoHmd-2" value="Aplicar&lt;br&gt;PE" style="ellipse;whiteSpace=wrap;html=1;aspect=fixed;" vertex="1" parent="1">
          <mxGeometry x="109" y="262" width="80" height="80" as="geometry" />
        </mxCell>
        <mxCell id="55w-Nb8C0aCBHZfSoHmd-13" value="" style="group" vertex="1" connectable="0" parent="1">
          <mxGeometry x="303" y="-244" width="330" height="330" as="geometry" />
        </mxCell>
        <mxCell id="55w-Nb8C0aCBHZfSoHmd-12" value="Obtener&lt;br&gt;Base Rate" style="ellipse;whiteSpace=wrap;html=1;aspect=fixed;horizontal=1;verticalAlign=top;" vertex="1" parent="55w-Nb8C0aCBHZfSoHmd-13">
          <mxGeometry width="330" height="330" as="geometry" />
        </mxCell>
        <mxCell id="55w-Nb8C0aCBHZfSoHmd-5" value="Get&lt;br&gt;FxBase From&lt;br&gt;RP" style="ellipse;whiteSpace=wrap;html=1;aspect=fixed;" vertex="1" parent="55w-Nb8C0aCBHZfSoHmd-13">
          <mxGeometry x="51" y="186.5" width="80" height="80" as="geometry" />
        </mxCell>
        <mxCell id="55w-Nb8C0aCBHZfSoHmd-6" value="Get&lt;br&gt;Max FxBase" style="ellipse;whiteSpace=wrap;html=1;aspect=fixed;" vertex="1" parent="55w-Nb8C0aCBHZfSoHmd-13">
          <mxGeometry x="211" y="186.5" width="80" height="80" as="geometry" />
        </mxCell>
        <mxCell id="55w-Nb8C0aCBHZfSoHmd-8" style="rounded=0;orthogonalLoop=1;jettySize=auto;html=1;entryX=0.5;entryY=0;entryDx=0;entryDy=0;" edge="1" parent="55w-Nb8C0aCBHZfSoHmd-13" source="55w-Nb8C0aCBHZfSoHmd-7" target="55w-Nb8C0aCBHZfSoHmd-5">
          <mxGeometry relative="1" as="geometry" />
        </mxCell>
        <mxCell id="55w-Nb8C0aCBHZfSoHmd-9" value="Si" style="edgeLabel;html=1;align=center;verticalAlign=middle;resizable=0;points=[];" vertex="1" connectable="0" parent="55w-Nb8C0aCBHZfSoHmd-8">
          <mxGeometry x="-0.253" relative="1" as="geometry">
            <mxPoint as="offset" />
          </mxGeometry>
        </mxCell>
        <mxCell id="55w-Nb8C0aCBHZfSoHmd-10" style="rounded=0;orthogonalLoop=1;jettySize=auto;html=1;" edge="1" parent="55w-Nb8C0aCBHZfSoHmd-13" source="55w-Nb8C0aCBHZfSoHmd-7" target="55w-Nb8C0aCBHZfSoHmd-6">
          <mxGeometry relative="1" as="geometry" />
        </mxCell>
        <mxCell id="55w-Nb8C0aCBHZfSoHmd-11" value="No" style="edgeLabel;html=1;align=center;verticalAlign=middle;resizable=0;points=[];" vertex="1" connectable="0" parent="55w-Nb8C0aCBHZfSoHmd-10">
          <mxGeometry x="-0.3179" y="2" relative="1" as="geometry">
            <mxPoint y="1" as="offset" />
          </mxGeometry>
        </mxCell>
        <mxCell id="55w-Nb8C0aCBHZfSoHmd-7" value="Reference&lt;br style=&quot;border-color: var(--border-color);&quot;&gt;Payer?" style="rhombus;whiteSpace=wrap;html=1;" vertex="1" parent="55w-Nb8C0aCBHZfSoHmd-13">
          <mxGeometry x="117" y="63.5" width="94" height="90" as="geometry" />
        </mxCell>
      </root>
    </mxGraphModel>
  </diagram>
</mxfile>
